<svg width="1200" height="800" viewBox="0 0 1200 800" fill="none" xmlns="http://www.w3.org/2000/svg">
  <rect width="1200" height="800" fill="#0B0F14"/>
  <circle cx="320" cy="280" r="180" fill="url(#paint0_radial)"/>
  <circle cx="760" cy="430" r="260" fill="url(#paint1_radial)"/>
  <g stroke="#00F5A0" stroke-width="2" opacity="0.5">
    <path d="M120 560H1080"/>
    <path d="M180 620H1020"/>
    <path d="M240 680H960"/>
  </g>
  <g stroke="#22D3EE" stroke-width="1.4" opacity="0.6">
    <path d="M280 120C420 220 520 240 680 200C820 165 940 190 1080 260"/>
    <path d="M160 340C340 280 520 330 700 420C860 500 960 520 1120 520"/>
  </g>
  <g fill="#E6EDF3" opacity="0.8">
    <circle cx="580" cy="310" r="6"/>
    <circle cx="690" cy="260" r="5"/>
    <circle cx="760" cy="510" r="4"/>
    <circle cx="420" cy="520" r="5"/>
  </g>
  <defs>
    <radialGradient id="paint0_radial" cx="0" cy="0" r="1" gradientUnits="userSpaceOnUse" gradientTransform="translate(320 280) rotate(90) scale(180)">
      <stop stop-color="#00F5A0" stop-opacity="0.25"/>
      <stop offset="1" stop-color="#00F5A0" stop-opacity="0"/>
    </radialGradient>
    <radialGradient id="paint1_radial" cx="0" cy="0" r="1" gradientUnits="userSpaceOnUse" gradientTransform="translate(760 430) rotate(90) scale(260)">
      <stop stop-color="#22D3EE" stop-opacity="0.25"/>
      <stop offset="1" stop-color="#22D3EE" stop-opacity="0"/>
    </radialGradient>
  </defs>
</svg>
